<svg width="165" height="34" viewBox="0 0 165 34" fill="none" xmlns="http://www.w3.org/2000/svg">
<rect opacity="0.6" width="165" height="34" rx="5" fill="#FF00A8"/>
<path d="M44 9C39.5806 9 36 12.5806 36 17C36 21.4194 39.5806 25 44 25C48.4194 25 52 21.4194 52 17C52 12.5806 48.4194 9 44 9ZM47.7323 17.7742L42.0548 21.0323C41.5452 21.3161 40.9032 20.9516 40.9032 20.3548V13.6452C40.9032 13.0516 41.5419 12.6839 42.0548 12.9677L47.7323 16.4194C48.2613 16.7161 48.2613 17.4806 47.7323 17.7742Z" fill="white"/>
<path d="M28.28 25L28.256 14.92L23.312 23.224H21.56L16.64 15.136V25H12.992V8.2H16.208L22.496 18.64L28.688 8.2H31.88L31.928 25H28.28ZM68.8565 12.088L63.4085 25H59.5445L54.1205 12.088H57.9845L61.5605 20.872L65.2565 12.088H68.8565ZM70.3843 12.088H74.1283V25H70.3843V12.088ZM72.2563 10.288C71.5683 10.288 71.0083 10.088 70.5763 9.688C70.1443 9.288 69.9283 8.792 69.9283 8.2C69.9283 7.608 70.1443 7.112 70.5763 6.712C71.0083 6.312 71.5683 6.112 72.2563 6.112C72.9443 6.112 73.5043 6.304 73.9363 6.688C74.3683 7.072 74.5843 7.552 74.5843 8.128C74.5843 8.752 74.3683 9.272 73.9363 9.688C73.5043 10.088 72.9443 10.288 72.2563 10.288ZM90.251 18.592C90.251 18.64 90.227 18.976 90.179 19.6H80.411C80.587 20.4 81.003 21.032 81.659 21.496C82.315 21.96 83.131 22.192 84.107 22.192C84.779 22.192 85.371 22.096 85.883 21.904C86.411 21.696 86.899 21.376 87.347 20.944L89.339 23.104C88.123 24.496 86.347 25.192 84.011 25.192C82.555 25.192 81.267 24.912 80.147 24.352C79.027 23.776 78.163 22.984 77.555 21.976C76.947 20.968 76.643 19.824 76.643 18.544C76.643 17.28 76.939 16.144 77.531 15.136C78.139 14.112 78.963 13.32 80.003 12.76C81.059 12.184 82.235 11.896 83.531 11.896C84.795 11.896 85.939 12.168 86.963 12.712C87.987 13.256 88.787 14.04 89.363 15.064C89.955 16.072 90.251 17.248 90.251 18.592ZM83.555 14.728C82.707 14.728 81.995 14.968 81.419 15.448C80.843 15.928 80.491 16.584 80.363 17.416H86.723C86.595 16.6 86.243 15.952 85.667 15.472C85.091 14.976 84.387 14.728 83.555 14.728ZM97.0876 25.192C96.0156 25.192 94.9676 25.064 93.9436 24.808C92.9196 24.536 92.1036 24.2 91.4956 23.8L92.7436 21.112C93.3196 21.48 94.0156 21.784 94.8316 22.024C95.6476 22.248 96.4476 22.36 97.2316 22.36C98.8156 22.36 99.6076 21.968 99.6076 21.184C99.6076 20.816 99.3916 20.552 98.9596 20.392C98.5276 20.232 97.8636 20.096 96.9676 19.984C95.9116 19.824 95.0396 19.64 94.3516 19.432C93.6636 19.224 93.0636 18.856 92.5516 18.328C92.0556 17.8 91.8076 17.048 91.8076 16.072C91.8076 15.256 92.0396 14.536 92.5036 13.912C92.9836 13.272 93.6716 12.776 94.5676 12.424C95.4796 12.072 96.5516 11.896 97.7836 11.896C98.6956 11.896 99.5996 12 100.496 12.208C101.408 12.4 102.16 12.672 102.752 13.024L101.504 15.688C100.368 15.048 99.1276 14.728 97.7836 14.728C96.9836 14.728 96.3836 14.84 95.9836 15.064C95.5836 15.288 95.3836 15.576 95.3836 15.928C95.3836 16.328 95.5996 16.608 96.0316 16.768C96.4636 16.928 97.1516 17.08 98.0956 17.224C99.1516 17.4 100.016 17.592 100.688 17.8C101.36 17.992 101.944 18.352 102.44 18.88C102.936 19.408 103.184 20.144 103.184 21.088C103.184 21.888 102.944 22.6 102.464 23.224C101.984 23.848 101.28 24.336 100.352 24.688C99.4396 25.024 98.3516 25.192 97.0876 25.192ZM105.758 8.2H109.646V25H105.758V8.2ZM121.217 11.896C122.817 11.896 124.105 12.376 125.081 13.336C126.073 14.296 126.569 15.72 126.569 17.608V25H122.825V18.184C122.825 17.16 122.601 16.4 122.153 15.904C121.705 15.392 121.057 15.136 120.209 15.136C119.265 15.136 118.513 15.432 117.953 16.024C117.393 16.6 117.113 17.464 117.113 18.616V25H113.369V12.088H116.945V13.6C117.441 13.056 118.057 12.64 118.793 12.352C119.529 12.048 120.337 11.896 121.217 11.896ZM134.066 12.376H137.378V15.256H134.162V25H130.418V15.256H128.426V12.376H130.418V11.8C130.418 10.328 130.85 9.16 131.714 8.296C132.594 7.432 133.826 7 135.41 7C135.97 7 136.498 7.064 136.994 7.192C137.506 7.304 137.93 7.472 138.266 7.696L137.282 10.408C136.85 10.104 136.346 9.952 135.77 9.952C134.634 9.952 134.066 10.576 134.066 11.824V12.376ZM145.224 25.192C143.864 25.192 142.64 24.912 141.552 24.352C140.48 23.776 139.64 22.984 139.032 21.976C138.424 20.968 138.12 19.824 138.12 18.544C138.12 17.264 138.424 16.12 139.032 15.112C139.64 14.104 140.48 13.32 141.552 12.76C142.64 12.184 143.864 11.896 145.224 11.896C146.584 11.896 147.8 12.184 148.872 12.76C149.944 13.32 150.784 14.104 151.392 15.112C152 16.12 152.304 17.264 152.304 18.544C152.304 19.824 152 20.968 151.392 21.976C150.784 22.984 149.944 23.776 148.872 24.352C147.8 24.912 146.584 25.192 145.224 25.192ZM145.224 22.12C146.184 22.12 146.968 21.8 147.576 21.16C148.2 20.504 148.512 19.632 148.512 18.544C148.512 17.456 148.2 16.592 147.576 15.952C146.968 15.296 146.184 14.968 145.224 14.968C144.264 14.968 143.472 15.296 142.848 15.952C142.224 16.592 141.912 17.456 141.912 18.544C141.912 19.632 142.224 20.504 142.848 21.16C143.472 21.8 144.264 22.12 145.224 22.12Z" fill="white"/>
</svg>
